<svg width="1318" height="800" xmlns="http://www.w3.org/2000/svg">
 <defs>
  <linearGradient id="b" y2="100%" x2="97.789%" y1="-121.906%" x1="-64.06%">
   <stop offset="0%" stop-color="#FF52C1"/>
   <stop offset="4.09%" stop-color="#F952C5"/>
   <stop offset="100%" stop-opacity="0" stop-color="#9952FF"/>
  </linearGradient>
  <linearGradient id="c" y2="-55.159%" x2="-24.893%" y1="111.373%" x1="100%">
   <stop offset="0%" stop-color="#FF52C1"/>
   <stop offset="100%" stop-color="#9952FF"/>
  </linearGradient>
  <linearGradient id="d" y2="145.591%" x2="145.861%" y1="5.006%" x1="21.681%">
   <stop offset="0%" stop-color="#FF52C1"/>
   <stop offset="100%" stop-color="#9952FF"/>
  </linearGradient>
  <linearGradient id="e" y2="105.701%" x2="91.754%" y1="-15.195%" x1="6.375%">
   <stop offset="0%" stop-color="#FF52C1"/>
   <stop offset="100%" stop-color="#9952FF"/>
  </linearGradient>
  <linearGradient id="svg_1" y2="100%" x2="NaN" y1="-88.077%" x1="NaN">
   <stop offset="0%" stop-color="#FF52C1"/>
   <stop offset="4.09%" stop-color="#F952C5"/>
   <stop offset="100%" stop-opacity="0" stop-color="#9952FF"/>
  </linearGradient>
 </defs>
 <g>
  <title>background</title>
  <rect fill="#674baf" id="canvas_background" height="802" width="1320" y="-1" x="-1"/>
 </g>
 <g>
  <title>Layer 1</title>
  <g id="svg_2" fill-rule="evenodd" fill="none">
   <path id="svg_3" d="m834.817,0l-409.224,0l-425.593,376l0,156.83l834.817,-532.83z" fill="url(#svg_1)"/>
   <path id="svg_4" d="m0,367l641.153,0.138l416.147,306.161l0,127.701l-1057.3,-434z" transform="rotate(180 528.6500244140625,584) " fill="url(#b)"/>
   <circle id="svg_5" r="49" cy="563" cx="704" stroke-width="17" stroke="url(#c)"/>
   <rect id="svg_6" rx="3" height="38" width="38" y="689.87" x="1088.87" transform="rotate(45 1107.8699951171873,708.8699951171875) " opacity="0.558" fill="url(#d)"/>
   <rect id="svg_7" rx="3" height="56" width="56" y="75.598" x="1251.598" transform="rotate(45 1279.5980224609377,103.59799957275385) " opacity="0.503" fill="url(#d)"/>
   <rect id="svg_8" rx="3" height="32" width="32" y="47.627" x="918.627" transform="rotate(45 934.6270141601564,63.62699890136723) " opacity="0.558" fill="url(#d)"/>
   <rect id="svg_9" rx="3" height="32" width="32" y="170.627" x="687.627" transform="rotate(45 703.6270141601562,186.6269989013672) " opacity="0.558" fill="url(#d)"/>
   <rect id="svg_10" rx="1" height="17" width="17" y="597.521" x="1228.521" transform="rotate(45 1237.0200195312502,606.02001953125) " opacity="0.387" fill="url(#d)"/>
   <path id="svg_11" transform="rotate(45 96.47699737548834,744.4769897460938) " opacity="0.211" fill="url(#e)" d="m91.477,739.477l0,-16.5a5,5 0 0 1 10,0l0,16.5l16.5,0a5,5 0 0 1 0,10l-16.5,0l0,16.5a5,5 0 1 1 -10,0l0,-16.5l-16.5,0a5,5 0 1 1 0,-10l16.5,0z"/>
  </g>
 </g>
</svg>